<?xml version="1.0" encoding="UTF-8" standalone="no"?>
<!-- Created with Inkscape (http://www.inkscape.org/) -->

<svg
   xmlns:dc="http://purl.org/dc/elements/1.1/"
   xmlns:cc="http://creativecommons.org/ns#"
   xmlns:rdf="http://www.w3.org/1999/02/22-rdf-syntax-ns#"
   xmlns:svg="http://www.w3.org/2000/svg"
   xmlns="http://www.w3.org/2000/svg"
   xmlns:sodipodi="http://sodipodi.sourceforge.net/DTD/sodipodi-0.dtd"
   xmlns:inkscape="http://www.inkscape.org/namespaces/inkscape"
   id="svg3004"
   version="1.1"
   inkscape:version="0.48.2 r9819"
   width="101.56252"
   height="40"
   xml:space="preserve"
   sodipodi:docname="parlgov-logo.svg"><metadata
     id="metadata3010"><rdf:RDF><cc:Work
         rdf:about=""><dc:format>image/svg+xml</dc:format><dc:type
           rdf:resource="http://purl.org/dc/dcmitype/StillImage" /><dc:title /></cc:Work></rdf:RDF></metadata><defs
     id="defs3008"><clipPath
       clipPathUnits="userSpaceOnUse"
       id="clipPath3018"><path
         d="m 0,841.89 595.28,0 L 595.28,0 0,0 0,841.89 z"
         id="path3020"
         inkscape:connector-curvature="0" /></clipPath></defs><sodipodi:namedview
     pagecolor="#ffffff"
     bordercolor="#666666"
     borderopacity="1"
     objecttolerance="10"
     gridtolerance="10"
     guidetolerance="10"
     inkscape:pageopacity="0"
     inkscape:pageshadow="2"
     inkscape:window-width="1280"
     inkscape:window-height="683"
     id="namedview3006"
     showgrid="false"
     fit-margin-top="0"
     fit-margin-left="0"
     fit-margin-right="0"
     fit-margin-bottom="0"
     inkscape:zoom="1"
     inkscape:cx="-60.963131"
     inkscape:cy="-150.71628"
     inkscape:window-x="0"
     inkscape:window-y="0"
     inkscape:window-maximized="1"
     inkscape:current-layer="g3012" /><g
     id="g3012"
     inkscape:groupmode="layer"
     inkscape:label="parlgov_logo"
     transform="matrix(1.25,0,0,-1.25,-130.655,796.8975)"><g
       id="g3014"
       transform="matrix(0.54080546,0,0,0.54080546,47.99685,278.05056)"><g
         id="g3016"
         clip-path="url(#clipPath3018)"><g
           id="g3022"
           transform="translate(125.3213,622.48)"><path
             d="m 0,0 -4.571,0 c 0.953,-4.447 3.26,-8.4 6.469,-11.403 l 3.137,3.142 C 2.65,-6.069 0.877,-3.217 0,0"
             style="fill:#474749;fill-opacity:1;fill-rule:nonzero;stroke:none"
             id="path3024"
             inkscape:connector-curvature="0" /></g><g
           id="g3026"
           transform="translate(124.709,627.0615)"><path
             d="m 0,0 c 0,3.804 1.227,7.322 3.3,10.196 l -3.171,3.17 C -2.737,9.668 -4.445,5.029 -4.445,0 c 0,-0.992 0.073,-1.964 0.202,-2.917 l 4.49,0 C 0.086,-1.97 0,-0.994 0,0"
             style="fill:#2076b6;fill-opacity:1;fill-rule:nonzero;stroke:none"
             id="path3028"
             inkscape:connector-curvature="0" /></g><g
           id="g3030"
           transform="translate(123.481,644.1416)"><path
             d="m 0,0 c 4.134,4.515 9.881,7.528 16.321,8.124 l 0,4.457 C 8.653,11.975 1.803,8.457 -3.137,3.134 L 0,0 z"
             style="fill:#474749;fill-opacity:1;fill-rule:nonzero;stroke:none"
             id="path3032"
             inkscape:connector-curvature="0" /></g><g
           id="g3034"
           transform="translate(117.2593,622.48)"><path
             d="m 0,0 -4.512,0 c 1.032,-6.632 4.26,-12.536 8.908,-16.962 l 3.142,3.137 C 3.697,-10.204 0.994,-5.398 0,0"
             style="fill:#474749;fill-opacity:1;fill-rule:nonzero;stroke:none"
             id="path3036"
             inkscape:connector-curvature="0" /></g><g
           id="g3038"
           transform="translate(116.8369,627.0615)"><path
             d="M 0,0 C 0,5.973 2.087,11.469 5.563,15.803 L 2.401,18.967 C -1.869,13.814 -4.438,7.2 -4.438,0 c 0,-0.983 0.048,-1.955 0.141,-2.917 l 4.472,0 C 0.064,-1.96 0,-0.988 0,0"
             style="fill:#2076b6;fill-opacity:1;fill-rule:nonzero;stroke:none"
             id="path3040"
             inkscape:connector-curvature="0" /></g><g
           id="g3042"
           transform="translate(141.4673,660.231)"><path
             d="m 0,0 c 0.227,0.006 0.458,0.02 0.694,0.02 9.41,0 17.918,-3.952 23.961,-10.268 l 3.142,3.137 C 20.949,0.017 11.334,4.458 0.694,4.458 0.458,4.458 0.227,4.446 0,4.443 L 0,0 z"
             style="fill:#474749;fill-opacity:1;fill-rule:nonzero;stroke:none"
             id="path3044"
             inkscape:connector-curvature="0" /></g><g
           id="g3046"
           transform="translate(117.9199,649.6982)"><path
             d="m 0,0 c 5.559,5.95 13.272,9.852 21.882,10.458 l 0,4.456 C 12.047,14.299 3.223,9.895 -3.142,3.142 L 0,0 z"
             style="fill:#474749;fill-opacity:1;fill-rule:nonzero;stroke:none"
             id="path3048"
             inkscape:connector-curvature="0" /></g><g
           id="g3050"
           transform="translate(109.106,624.145)"><path
             d="m 0,0 c -0.084,0.961 -0.134,1.934 -0.134,2.917 0,8.144 2.954,15.609 7.842,21.39 L 4.56,27.455 C -1.128,20.863 -4.582,12.284 -4.582,2.917 -4.582,1.934 -4.531,0.963 -4.453,0 L 0,0 z"
             style="fill:#2076b6;fill-opacity:1;fill-rule:nonzero;stroke:none"
             id="path3052"
             inkscape:connector-curvature="0" /></g><g
           id="g3054"
           transform="translate(131.7236,613.0552)"><path
             d="M 0,0 -3.233,-3.228 C 0.585,-5.7 4.05,-7.423 8.44,-7.279 l 0,4.438 C 5.2,-2.972 2.892,-1.656 0,0"
             style="fill:#474749;fill-opacity:1;fill-rule:nonzero;stroke:none"
             id="path3056"
             inkscape:connector-curvature="0" /></g><g
           id="g3058"
           transform="translate(139.9751,631.6392)"><path
             d="m 0,0 1.413,0 c 3.484,0 5.22,1.337 5.22,4.014 0,2.594 -1.794,3.892 -5.382,3.892 L 0,7.906 0,0 z m 0,-3.518 0,-10.198 -3.794,0 0,25.113 4.294,0 c 2.105,0 3.695,-0.147 4.769,-0.437 1.085,-0.293 2.04,-0.849 2.861,-1.657 1.445,-1.411 2.165,-3.189 2.165,-5.338 0,-2.295 -0.774,-4.115 -2.31,-5.462 -1.54,-1.344 -3.618,-2.021 -6.23,-2.021 l -1.755,0 z"
             style="fill:#474749;fill-opacity:1;fill-rule:nonzero;stroke:none"
             id="path3060"
             inkscape:connector-curvature="0" /></g><g
           id="g3062"
           transform="translate(155.2021,625.8975)"><path
             d="m 0,0 c 0,-1.52 0.412,-2.755 1.225,-3.71 0.832,-0.963 1.883,-1.446 3.156,-1.446 1.355,0 2.45,0.463 3.287,1.398 0.829,0.965 1.248,2.19 1.248,3.672 0,1.489 -0.419,2.714 -1.248,3.679 C 6.831,4.533 5.742,5.006 4.41,5.006 3.157,5.006 2.1,4.528 1.257,3.577 0.419,2.61 0,1.418 0,0 m 8.689,7.869 3.675,0 0,-15.844 -3.675,0 0,1.66 C 7.185,-7.724 5.563,-8.427 3.824,-8.427 c -2.187,0 -3.997,0.791 -5.431,2.37 -1.418,1.617 -2.131,3.636 -2.131,6.057 0,2.374 0.713,4.352 2.131,5.935 1.423,1.585 3.201,2.374 5.335,2.374 1.846,0 3.5,-0.757 4.961,-2.277 l 0,1.837 z"
             style="fill:#474749;fill-opacity:1;fill-rule:nonzero;stroke:none"
             id="path3064"
             inkscape:connector-curvature="0" /></g><g
           id="g3066"
           transform="translate(171.8203,633.7661)"><path
             d="m 0,0 3.659,0 0,-1.413 c 0.674,0.704 1.268,1.184 1.787,1.445 0.537,0.274 1.166,0.408 1.887,0.408 0.965,0 1.977,-0.311 3.028,-0.945 L 8.685,-3.851 c -0.693,0.499 -1.37,0.747 -2.032,0.747 -1.996,0 -2.994,-1.51 -2.994,-4.523 l 0,-8.216 -3.659,0 L 0,0 z"
             style="fill:#474749;fill-opacity:1;fill-rule:nonzero;stroke:none"
             id="path3068"
             inkscape:connector-curvature="0" /></g><path
           d="m 188.444,617.923 -3.658,0 0,27.477 3.658,0 0,-27.477 z"
           style="fill:#474749;fill-opacity:1;fill-rule:nonzero;stroke:none"
           id="path3070"
           inkscape:connector-curvature="0" /><g
           id="g3072"
           transform="translate(206.6973,631.0054)"><path
             d="m 0,0 10.375,0 0,-0.833 c 0,-1.889 -0.224,-3.559 -0.667,-5.011 -0.435,-1.346 -1.168,-2.599 -2.194,-3.77 -2.333,-2.627 -5.301,-3.937 -8.902,-3.937 -3.508,0 -6.519,1.267 -9.029,3.804 -2.501,2.55 -3.754,5.607 -3.754,9.172 0,3.643 1.278,6.737 3.824,9.276 2.547,2.546 5.65,3.817 9.303,3.817 1.96,0 3.794,-0.398 5.5,-1.194 C 6.078,10.527 7.681,9.228 9.252,7.426 L 6.556,4.841 C 4.493,7.585 1.985,8.96 -0.978,8.96 c -2.659,0 -4.884,-0.914 -6.688,-2.75 -1.795,-1.803 -2.701,-4.056 -2.701,-6.763 0,-2.802 1.008,-5.103 3.008,-6.913 1.883,-1.685 3.914,-2.524 6.105,-2.524 1.864,0 3.54,0.628 5.022,1.885 1.489,1.262 2.316,2.777 2.492,4.539 L 0,-3.566 0,0 z"
             style="fill:#2076b6;fill-opacity:1;fill-rule:nonzero;stroke:none"
             id="path3074"
             inkscape:connector-curvature="0" /></g><g
           id="g3076"
           transform="translate(224.1313,625.8975)"><path
             d="m 0,0 c 0,-1.588 0.422,-2.841 1.268,-3.758 0.868,-0.935 2.014,-1.398 3.43,-1.398 1.436,0 2.578,0.456 3.437,1.38 0.856,0.924 1.286,2.154 1.286,3.69 0,1.542 -0.43,2.777 -1.286,3.691 C 7.267,4.54 6.121,5.006 4.698,5.006 3.301,5.006 2.17,4.54 1.303,3.605 0.435,2.676 0,1.472 0,0 m -3.738,0.059 c 0,2.294 0.814,4.239 2.454,5.844 1.637,1.606 3.629,2.406 5.982,2.406 2.365,0 4.372,-0.806 6.017,-2.422 1.628,-1.617 2.444,-3.603 2.444,-5.955 0,-2.376 -0.822,-4.367 -2.454,-5.969 -1.655,-1.594 -3.674,-2.39 -6.07,-2.39 -2.374,0 -4.363,0.811 -5.967,2.438 -1.606,1.606 -2.406,3.626 -2.406,6.048"
             style="fill:#2076b6;fill-opacity:1;fill-rule:nonzero;stroke:none"
             id="path3078"
             inkscape:connector-curvature="0" /></g><g
           id="g3080"
           transform="translate(242.4629,633.7661)"><path
             d="M 0,0 4.098,-8.895 8.18,0 12.3,0 4.066,-16.934 -4.098,0 0,0 z"
             style="fill:#2076b6;fill-opacity:1;fill-rule:nonzero;stroke:none"
             id="path3082"
             inkscape:connector-curvature="0" /></g></g></g></g></svg>